<svg width="14" height="14" viewBox="0 0 14 14" fill="none" xmlns="http://www.w3.org/2000/svg">
<g clip-path="url(#clip0)">
<path d="M9.28027 7.07176L14 10.0555V3.96201L9.28027 7.07176Z" fill="#979797"/>
<path d="M0 3.96201V10.0555L4.71975 7.07176L0 3.96201Z" fill="#979797"/>
<path d="M13.1251 2.1875H0.875117C0.438492 2.1875 0.0919922 2.513 0.0263672 2.93213L7.00012 7.52675L13.9739 2.93213C13.9082 2.513 13.5617 2.1875 13.1251 2.1875Z" fill="#979797"/>
<path d="M8.47809 7.60026L7.23997 8.41575C7.16647 8.46388 7.08334 8.4875 6.99934 8.4875C6.91534 8.4875 6.83222 8.46388 6.75872 8.41575L5.52059 7.59938L0.0273438 11.074C0.0947187 11.4896 0.439469 11.8125 0.874344 11.8125H13.1243C13.5592 11.8125 13.904 11.4896 13.9713 11.074L8.47809 7.60026Z" fill="#979797"/>
</g>
<defs>
<clipPath id="clip0">
<rect width="14" height="14" fill="white"/>
</clipPath>
</defs>
</svg>
