<svg width="525" height="458" viewBox="0 0 525 458" fill="none" xmlns="http://www.w3.org/2000/svg">
<path fill-rule="evenodd" clip-rule="evenodd" d="M3.20831 180.36C2.70251 178.691 3.13511 176.898 4.31801 175.574C7.34331 172.185 13.2503 173.6 14.5656 177.863C20.251 196.29 30.4928 213.542 44.9737 227.948C50.9019 233.847 57.5406 239.268 64.8675 244.099C77.4815 252.414 91.1085 258.299 105.134 261.861C105.7 262.005 106.267 262.145 106.835 262.281C110.953 263.269 115.103 264.059 119.269 264.652L27.433 390.391C16.0799 405.935 20.1414 427.274 36.5064 438.063C52.8835 448.858 75.3775 444.999 86.7395 429.443L244.607 213.295L244.611 213.29L244.642 213.247L244.645 213.244L244.652 213.234L244.656 213.229L244.664 213.218L244.678 213.199L244.686 213.187L244.688 213.184L244.691 213.181C247.31 209.703 253.007 210.67 254.193 214.795L254.468 215.749C254.923 217.33 254.617 219.022 253.633 220.369L96.3025 435.744C81.2765 456.318 51.5258 461.423 29.8658 447.145C8.22181 432.876 2.85001 404.654 17.8655 384.095L99.7885 271.929C85.3105 267.995 71.2655 261.775 58.2324 253.184C30.5329 234.924 11.8616 208.915 3.20831 180.36ZM146.166 11.8306C143.166 15.287 145.759 20.6027 150.456 21.012C171.928 22.883 193.2 29.8942 212.179 42.4052C225.302 51.0561 236.216 61.6031 244.796 73.3888L244.828 73.4325C247.232 76.7373 249.452 80.1395 251.486 83.6246L280.042 47.2425C291.782 32.2845 313.898 28.8581 330.037 39.4968C346.727 50.4994 350.715 72.3385 338.9 88.0339L260.564 192.096C259.548 193.445 259.226 195.156 259.686 196.756C260.976 201.242 267.174 202.292 270.018 198.507L348.175 94.5103C363.802 73.7174 358.51 44.8074 336.412 30.2399C315.071 16.1718 285.831 20.6655 270.254 40.4075L251.843 63.7409C242.897 52.2335 231.847 41.9113 218.815 33.3199C197.922 19.5474 174.48 11.8889 150.839 9.94078C149.049 9.79327 147.309 10.514 146.166 11.8306ZM22.0327 158.251C21.8332 156.854 22.2874 155.448 23.2474 154.373C26.4658 150.769 32.9777 152.905 33.6867 157.582C37.7317 184.268 52.986 209.347 78.1395 225.928C91.9615 235.039 107.208 240.572 122.72 242.781L147.448 246.301C153.108 247.106 155.913 253.271 152.652 257.736L46.568 402.983C42.5395 408.499 43.9806 416.071 49.7876 419.898C55.5988 423.73 63.5805 422.36 67.6125 416.84L225.465 200.715L225.516 200.642L225.522 200.635L225.567 200.574L225.573 200.566L225.58 200.556L225.583 200.552L225.594 200.536L236.228 186.467C239.08 182.694 245.266 183.751 246.554 188.231C247.015 189.832 246.691 191.546 245.673 192.896L235.129 206.877L235.122 206.886L235.108 206.906L235.097 206.921L235.094 206.925L235.09 206.93L77.1755 423.141C69.4795 433.679 54.2412 436.294 43.147 428.98C32.061 421.672 29.3097 407.217 37.0005 396.687L139.499 256.35L120.995 253.716C117.205 253.177 113.431 252.459 109.687 251.56C96.3965 248.37 83.4615 242.896 71.5035 235.013C43.3014 216.421 26.3114 188.207 22.0327 158.251ZM127.272 33.6027C124.081 37.2797 127.584 43.0502 132.594 42.7796C155.364 41.5496 178.719 47.267 198.908 60.5757C212.73 69.6878 223.522 81.3188 231.129 94.3512L243.442 115.448C246.171 120.122 253.078 120.547 256.419 116.246L299.516 60.7641C303.655 55.436 311.506 54.2005 317.234 57.9762C323.144 61.8723 324.549 69.6092 320.354 75.1595L252.687 164.69C251.668 166.038 251.344 167.75 251.804 169.35C253.09 173.822 259.266 174.873 262.109 171.104L329.626 81.582C337.631 70.9684 334.939 56.1879 323.645 48.7431C312.711 41.535 297.724 43.8764 289.798 54.0312L250.381 104.533L241.308 88.9879L241.211 88.823L241.105 88.6418C241.056 88.5585 241.006 88.4752 240.957 88.3919C239.195 85.4161 237.283 82.5085 235.224 79.6797C227.426 68.9688 217.502 59.3735 205.543 51.4905C198.876 47.0953 191.898 43.4461 184.718 40.5241C167.449 33.4957 149.015 30.674 130.941 31.7969C129.507 31.8859 128.185 32.5499 127.272 33.6027ZM501.531 74.3335L419.682 186.401C434.159 190.335 448.204 196.555 461.237 205.146C525.137 247.27 540.991 330.636 496.648 391.35C452.304 452.063 364.555 467.134 300.656 425.01C287.623 416.418 276.574 406.096 267.627 394.589L249.333 417.774C233.69 437.599 204.329 442.111 182.899 427.984L175.033 422.799C157.307 411.114 152.969 387.971 165.359 371.196L254.568 250.422C257.394 246.597 263.636 247.63 264.932 252.137C265.388 253.722 265.077 255.416 264.083 256.76L180.218 370.242C168.566 386.008 172.642 407.764 189.305 418.749C205.515 429.434 227.73 425.992 239.522 410.968L267.984 374.706C270.018 378.19 272.238 381.592 274.642 384.898L274.674 384.941C283.254 396.727 294.168 407.274 307.291 415.925C365.91 454.567 446.407 440.742 487.086 385.046C522.679 336.312 515.994 271.668 474.496 230.381C468.568 224.484 461.929 219.062 454.602 214.232C441.988 205.917 428.361 200.031 414.336 196.469C413.77 196.325 413.203 196.186 412.635 196.049C408.517 195.06 404.367 194.271 400.201 193.678L491.979 68.0169C503.363 52.4295 499.291 31.0312 482.88 20.2133C466.522 9.42991 444.063 13.2233 432.624 28.7013L280.449 234.616C277.62 238.442 271.376 237.408 270.079 232.898C269.623 231.314 269.935 229.619 270.928 228.274L423.032 22.3506C438.156 1.87512 467.864 -3.14567 489.5 11.1171C511.201 25.4228 516.586 53.7204 501.531 74.3335ZM278.315 261.536C277.895 260.078 278.187 258.518 279.109 257.285L319.93 202.726L442.294 35.1886C449.99 24.6509 465.228 22.036 476.323 29.3494C487.409 36.6574 490.16 51.1131 482.469 61.6432L379.972 201.979L398.475 204.613C402.265 205.153 406.039 205.87 409.783 206.77C423.073 209.96 436.008 215.434 447.966 223.317C501.304 258.478 514.537 328.065 477.523 378.743C445.136 423.086 385.01 438.26 334.752 417.806C327.572 414.884 320.594 411.234 313.927 406.84C301.969 398.956 292.044 389.361 284.246 378.65C282.187 375.821 280.275 372.914 278.513 369.938C278.461 369.85 278.409 369.761 278.356 369.672C278.292 369.563 278.227 369.452 278.163 369.342L269.089 353.796L229.7 404.264C221.759 414.438 206.743 416.784 195.787 409.562C184.502 402.123 181.784 387.366 189.74 376.732L263.349 278.349C265.981 274.831 271.737 275.801 272.934 279.964C273.357 281.433 273.068 283.004 272.146 284.251L198.972 383.149C194.844 388.727 196.285 396.43 202.183 400.319C207.941 404.114 215.832 402.872 219.993 397.517L263.051 342.084C266.392 337.783 273.3 338.207 276.028 342.882L288.341 363.979C295.948 377.011 306.74 388.642 320.562 397.754C368.619 429.433 434.612 418.1 467.961 372.439C501.311 326.778 489.387 264.082 441.33 232.403C427.508 223.29 412.262 217.757 396.75 215.55L362.727 210.706C361.351 210.511 360.669 209.012 361.462 207.927L472.88 55.3776C476.92 49.8451 475.475 42.2499 469.65 38.4103C463.846 34.5844 455.878 35.928 451.816 41.4175L287.789 263.108C285.203 266.603 279.5 265.656 278.315 261.536ZM311.885 264.168C339.371 226.537 393.76 217.195 433.368 243.305C472.975 269.414 482.802 321.087 455.316 358.72C427.831 396.352 373.441 405.694 333.834 379.584C294.226 353.475 284.4 301.801 311.885 264.168ZM321.447 270.472C345.268 237.858 392.406 229.762 426.732 252.39C461.059 275.018 469.575 319.801 445.754 352.416C421.933 385.031 374.796 393.127 340.469 370.498C306.143 347.871 297.626 303.087 321.447 270.472ZM97.6445 208.919C95.9915 207.998 94.3635 207.011 92.7635 205.957L92.7375 205.94C91.1285 204.879 89.5765 203.77 88.0825 202.617C57.6839 179.141 51.0109 137 73.7155 105.914C97.5365 73.299 144.674 65.2032 179.001 87.8315C205.951 105.598 216.992 137.02 208.964 165.488C208.005 168.89 210.183 172.437 213.89 172.329C216.382 172.256 219.503 170.831 220.154 168.545C229.523 135.646 216.795 99.2862 185.636 78.7462C146.029 52.6366 91.6385 61.978 64.1535 99.61C36.6677 137.243 46.4945 188.916 86.1015 215.026C116.542 235.092 155.712 234.219 184.691 215.657C186.767 214.328 187.214 211.104 186.476 208.832C185.383 205.464 181.131 204.608 178.05 206.572C154.481 221.599 123.179 223.154 97.6445 208.919Z" fill="url(#paint0_linear)" stroke="url(#paint1_linear)" stroke-width="5"/>
<defs>
<linearGradient id="paint0_linear" x1="-47.1308" y1="-0.600777" x2="692.069" y2="293.195" gradientUnits="userSpaceOnUse">
<stop offset="0.114519" stop-color="#FBD16D"/>
<stop offset="0.482373" stop-color="#D9952E"/>
<stop offset="0.807259" stop-color="#FF8A00"/>
</linearGradient>
<linearGradient id="paint1_linear" x1="-47.1308" y1="-0.600777" x2="692.069" y2="293.195" gradientUnits="userSpaceOnUse">
<stop offset="0.114519" stop-color="#FBD16D"/>
<stop offset="0.482373" stop-color="#D9952E"/>
<stop offset="0.807259" stop-color="#FF8A00"/>
</linearGradient>
</defs>
</svg>
