<svg width="17" height="17" viewBox="0 0 17 17" fill="none" xmlns="http://www.w3.org/2000/svg">
<g opacity="0.85" clip-path="url(#clip0)">
<path d="M15.2106 0.34552H0.976196C0.48877 0.345764 0.093628 0.74115 0.09375 1.2287V15.4631C0.0939942 15.9505 0.48938 16.3456 0.976929 16.3455H15.2106C15.6982 16.3456 16.0936 15.9504 16.0938 15.4627C16.0938 15.4626 16.0938 15.4625 16.0938 15.4623V1.22797C16.0935 0.74054 15.6981 0.345398 15.2106 0.34552Z" fill="#4267B2"/>
<path d="M12.6719 15.9291V9.74164H14.7578L15.0703 7.31976H12.6719V5.77728C12.6719 5.0777 12.8661 4.60101 13.8693 4.60101H15.1406V2.44073C14.9194 2.41132 14.1605 2.34552 13.2775 2.34552C11.4337 2.34552 10.1719 3.47052 10.1719 5.53741V7.31976H8.09375V9.74164H10.1719V15.9291H12.6719Z" fill="white"/>
</g>
<defs>
<clipPath id="clip0">
<rect width="16" height="16" fill="white" transform="translate(0.09375 0.34552)"/>
</clipPath>
</defs>
</svg>
