<svg width="17" height="17" viewBox="0 0 17 17" fill="none" xmlns="http://www.w3.org/2000/svg">
<g opacity="0.85" clip-path="url(#clip0)">
<path d="M16.0457 5.04718C16.0067 4.19562 15.8715 3.61407 15.6737 3.10529C15.4729 2.57147 15.158 2.08795 14.751 1.68829C14.3514 1.28131 13.8678 0.966248 13.334 0.76532C12.8251 0.567688 12.2437 0.432556 11.3921 0.39386C10.5389 0.354797 10.2664 0.34552 8.09375 0.34552C5.92114 0.34552 5.64856 0.354797 4.79541 0.393616C3.94385 0.432556 3.36243 0.56781 2.85352 0.765564C2.3197 0.96637 1.83618 1.28131 1.43652 1.68829C1.02954 2.08783 0.714478 2.57135 0.51355 3.10516C0.315918 3.61407 0.180786 4.19562 0.14209 5.04706C0.103027 5.90033 0.09375 6.17279 0.09375 8.3454C0.09375 10.5181 0.103027 10.7907 0.14209 11.6439C0.180908 12.4953 0.316162 13.0768 0.513916 13.5858C0.714722 14.1194 1.02966 14.6031 1.43665 15.0026C1.83618 15.4096 2.31982 15.7245 2.85364 15.9254C3.36243 16.1232 3.94397 16.2584 4.79553 16.2973C5.6488 16.3362 5.92126 16.3454 8.09387 16.3454C10.2665 16.3454 10.5391 16.3362 11.3922 16.2973C12.2438 16.2584 12.8252 16.1232 13.3341 15.9254C14.4087 15.5098 15.2582 14.6603 15.6737 13.5858C15.8716 13.0768 16.0067 12.4953 16.0457 11.6439C16.0845 10.7906 16.0938 10.5181 16.0938 8.34552C16.0938 6.17279 16.0845 5.90033 16.0457 5.04718ZM14.6056 11.5783C14.5701 12.3583 14.4397 12.7819 14.3302 13.0638C14.061 13.7615 13.5096 14.3129 12.8119 14.5821C12.53 14.6916 12.1064 14.822 11.3264 14.8575C10.483 14.8961 10.23 14.9041 8.09375 14.9041C5.9574 14.9041 5.70447 14.8961 4.86096 14.8575C4.08105 14.822 3.65747 14.6916 3.37549 14.5821C3.02808 14.4538 2.71375 14.2493 2.45569 13.9836C2.18994 13.7255 1.98547 13.4113 1.85718 13.0638C1.74768 12.7819 1.61731 12.3583 1.58179 11.5783C1.54333 10.7348 1.53516 10.4818 1.53516 8.34564C1.53516 6.20941 1.54333 5.95648 1.58179 5.11285C1.61743 4.33282 1.74768 3.90924 1.85718 3.62738C1.98547 3.27985 2.19006 2.96552 2.45569 2.70746C2.71375 2.44171 3.02808 2.23724 3.37561 2.10907C3.65747 1.99945 4.08105 1.8692 4.86108 1.83356C5.70459 1.7951 5.95764 1.78693 8.09375 1.78693H8.09363C10.2297 1.78693 10.4828 1.7951 11.3264 1.83368C12.1064 1.8692 12.5299 1.99957 12.8119 2.10907C13.1593 2.23737 13.4736 2.44183 13.7317 2.70746C13.9974 2.96552 14.2019 3.27985 14.3301 3.62738C14.4397 3.90924 14.5701 4.33282 14.6056 5.11285C14.644 5.95636 14.6522 6.20941 14.6522 8.34552C14.6522 10.4818 14.6442 10.7347 14.6056 11.5783Z" fill="url(#paint0_linear)"/>
<path d="M8.09338 4.23737C5.82458 4.23737 3.98535 6.07672 3.98535 8.34552C3.98535 10.6143 5.82458 12.4536 8.09338 12.4536C10.3623 12.4536 12.2015 10.6143 12.2015 8.34552C12.2015 6.07672 10.3623 4.23737 8.09338 4.23737ZM8.09338 11.0121C6.62073 11.012 5.42676 9.81818 5.42688 8.3454C5.42688 6.87274 6.62073 5.67877 8.09351 5.67877C9.56628 5.67889 10.7601 6.87274 10.7601 8.3454C10.7601 9.81818 9.56616 11.0121 8.09338 11.0121Z" fill="url(#paint1_linear)"/>
<path d="M13.3243 4.07513C13.3243 4.60529 12.8945 5.0351 12.3644 5.0351C11.8341 5.0351 11.4043 4.60529 11.4043 4.07513C11.4043 3.54486 11.8341 3.11505 12.3644 3.11505C12.8945 3.11505 13.3243 3.54486 13.3243 4.07513Z" fill="url(#paint2_linear)"/>
</g>
<defs>
<linearGradient id="paint0_linear" x1="1.43644" y1="15.0027" x2="14.7511" y2="1.68808" gradientUnits="userSpaceOnUse">
<stop stop-color="#FFD600"/>
<stop offset="0.5" stop-color="#FF0100"/>
<stop offset="1" stop-color="#D800B9"/>
</linearGradient>
<linearGradient id="paint1_linear" x1="5.1886" y1="11.2503" x2="10.9983" y2="5.44061" gradientUnits="userSpaceOnUse">
<stop stop-color="#FF6400"/>
<stop offset="0.5" stop-color="#FF0100"/>
<stop offset="1" stop-color="#FD0056"/>
</linearGradient>
<linearGradient id="paint2_linear" x1="11.6855" y1="4.75388" x2="13.0431" y2="3.39627" gradientUnits="userSpaceOnUse">
<stop stop-color="#F30072"/>
<stop offset="1" stop-color="#E50097"/>
</linearGradient>
<clipPath id="clip0">
<rect width="16" height="16" fill="white" transform="translate(0.09375 0.34552)"/>
</clipPath>
</defs>
</svg>
