<svg width="14" height="14" viewBox="0 0 14 14" fill="none" xmlns="http://www.w3.org/2000/svg">
<path d="M12.3958 2.34248H9.3333V2.19658C9.3333 1.63368 8.8754 1.17578 8.3125 1.17578H5.6875C5.1246 1.17578 4.6667 1.63368 4.6667 2.19658V2.34248H1.6042C0.719269 2.34248 0 3.06165 0 3.94658V11.2383C0 12.1232 0.719269 12.8425 1.6042 12.8425H12.3958C13.2807 12.8425 14 12.1232 14 11.2383V3.94658C14 3.06165 13.2807 2.34248 12.3958 2.34248ZM8.16724 3.50908H5.8333V2.34248H8.1667L8.16724 3.50908ZM4.375 5.25908C5.17886 5.25908 5.8333 5.91362 5.8333 6.71748C5.8333 7.52124 5.17886 8.17578 4.375 8.17578C3.57114 8.17578 2.9167 7.52124 2.9167 6.71748C2.9167 5.91362 3.57114 5.25908 4.375 5.25908ZM7 10.655C7 10.8965 6.804 11.0925 6.5625 11.0925H2.1875C1.946 11.0925 1.75 10.8965 1.75 10.655V10.3633C1.75 9.47835 2.46927 8.75908 3.3542 8.75908H5.3958C6.28073 8.75908 7 9.47835 7 10.3633V10.655ZM11.8125 11.0925H8.6042C8.3627 11.0925 8.1667 10.8965 8.1667 10.655C8.1667 10.4135 8.3627 10.2175 8.6042 10.2175H11.8125C12.054 10.2175 12.25 10.4135 12.25 10.655C12.25 10.8965 12.054 11.0925 11.8125 11.0925ZM11.8125 8.75908H8.6042C8.3627 8.75908 8.1667 8.56308 8.1667 8.32158C8.1667 8.08008 8.3627 7.88408 8.6042 7.88408H11.8125C12.054 7.88408 12.25 8.08008 12.25 8.32158C12.25 8.56308 12.054 8.75908 11.8125 8.75908ZM11.8125 6.42578H8.6042C8.3627 6.42578 8.1667 6.22978 8.1667 5.98828C8.1667 5.74678 8.3627 5.55078 8.6042 5.55078H11.8125C12.054 5.55078 12.25 5.74678 12.25 5.98828C12.25 6.22978 12.054 6.42578 11.8125 6.42578Z" fill="#979797"/>
</svg>
