<svg width="107" height="95" viewBox="0 0 107 95" fill="none" xmlns="http://www.w3.org/2000/svg">
  <g clip-path="url(#clip0)">
    <path d="M77.4416 29.2816C71.1455 29.2816 66.0413 33.8133 66.0413 39.4033C66.0413 44.9934 71.1455 49.5251 77.4416 49.5251C83.7377 49.5251 88.8419 44.9934 88.8419 39.4033V39.4031C88.8395 33.8139 83.7369 29.2835 77.4416 29.2816ZM71.7414 45.4762C70.4822 45.4762 69.4614 44.5699 69.4614 43.4519C69.4614 42.3339 70.4822 41.4275 71.7414 41.4275C73.0007 41.4275 74.0215 42.3339 74.0215 43.4519C74.0178 44.5683 72.9991 45.4727 71.7414 45.4762ZM79.7217 40.4153C77.2032 40.4153 75.1615 38.6026 75.1615 36.3666C75.1615 34.1306 77.2032 32.3179 79.7217 32.3179C82.2401 32.3179 84.2818 34.1306 84.2818 36.3666C84.2825 38.602 82.2421 40.4147 79.7243 40.4153C79.7234 40.4153 79.7225 40.4153 79.7217 40.4153Z" fill="url(#paint0_linear)"/>
    <path d="M40.961 39.4032C40.961 33.8131 35.8568 29.2814 29.5607 29.2814C23.2645 29.2814 18.1603 33.8131 18.1603 39.4032C18.1603 44.9932 23.2645 49.525 29.5607 49.525C35.8559 49.5228 40.9588 44.9924 40.961 39.4032ZM23.8605 45.4755C22.6013 45.4755 21.5804 44.5691 21.5804 43.4511C21.5804 42.3331 22.6013 41.4268 23.8605 41.4268C25.1197 41.4268 26.1406 42.3331 26.1406 43.4511C26.1373 44.5679 25.1184 45.4727 23.8605 45.4763V45.4755ZM31.8407 40.4146C29.3223 40.4146 27.2806 38.6019 27.2806 36.3659C27.2806 34.1298 29.3223 32.3171 31.8407 32.3171C34.3592 32.3171 36.4009 34.1298 36.4009 36.3659C36.4022 38.6013 34.362 40.4142 31.8442 40.4154C31.8431 40.4154 31.8418 40.4154 31.8407 40.4154V40.4146Z" fill="url(#paint1_linear)"/>
    <path d="M53.5011 0.00130081C23.9548 -6.59447e-05 0.00153946 21.2647 5.78995e-08 47.4974C-0.000659684 60.0967 5.63684 72.1802 15.672 81.0887C36.5647 99.6381 70.4383 99.6379 91.3308 81.0883C112.223 62.5387 112.223 32.4641 91.3303 13.9147C81.3196 4.97746 67.6979 -0.0326728 53.5011 0.00130081ZM53.5011 91.0967C26.4262 91.0967 4.39916 71.54 4.39916 47.5015C4.39916 23.463 26.4262 3.90631 53.5011 3.90631C80.5761 3.90631 102.603 23.463 102.603 47.5015C102.603 71.54 80.5761 91.0967 53.5011 91.0967Z" fill="url(#paint2_linear)"/>
    <path d="M63.4192 63.8011C60.578 61.8396 57.0782 60.7798 53.4791 60.7913C45.7573 60.8052 39.1027 65.621 37.5303 72.3331L41.8406 73.1141C42.9897 68.2174 47.8456 64.7055 53.4791 64.6963C56.1036 64.6871 58.6557 65.4591 60.7279 66.889C62.76 68.2858 64.2314 70.2262 64.9248 72.4231L69.1645 71.3846C68.2165 68.3744 66.2018 65.7155 63.4192 63.8011Z" fill="url(#paint3_linear)"/>
    <path d="M28.6289 25.9435L28.2574 22.0524C24.3718 22.342 20.838 24.165 18.6305 27.0188L22.2513 29.2368C23.7133 27.3454 26.0543 26.1365 28.6289 25.9435Z" fill="url(#paint4_linear)"/>
    <path d="M78.7447 22.0524L78.3734 25.9435C80.9484 26.1363 83.2901 27.3451 84.7523 29.2368L88.3716 27.0188C86.1643 24.1648 82.6303 22.3418 78.7447 22.0524Z" fill="url(#paint5_linear)"/>
  </g>
  <defs>
    <linearGradient id="paint0_linear" x1="77.4416" y1="-1.31214" x2="77.4416" y2="92.4081" gradientUnits="userSpaceOnUse">
      <stop stop-color="#162F4A"/>
      <stop offset="1" stop-color="#162F4A"/>
    </linearGradient>
    <linearGradient id="paint1_linear" x1="29.5607" y1="-1.31216" x2="29.5607" y2="92.4082" gradientUnits="userSpaceOnUse">
      <stop stop-color="#162F4A"/>
      <stop offset="1" stop-color="#162F4A"/>
    </linearGradient>
    <linearGradient id="paint2_linear" x1="53.5" y1="-1.31125" x2="53.5" y2="92.4091" gradientUnits="userSpaceOnUse">
      <stop stop-color="#162F4A"/>
      <stop offset="1" stop-color="#224B76"/>
    </linearGradient>
    <linearGradient id="paint3_linear" x1="53.3475" y1="-1.31211" x2="53.3475" y2="92.4081" gradientUnits="userSpaceOnUse">
      <stop stop-color="#162F4A"/>
      <stop offset="1" stop-color="#224B76"/>
    </linearGradient>
    <linearGradient id="paint4_linear" x1="23.6297" y1="-1.31216" x2="23.6297" y2="92.4082" gradientUnits="userSpaceOnUse">
      <stop stop-color="#162F4A"/>
      <stop offset="1" stop-color="#224B76"/>
    </linearGradient>
    <linearGradient id="paint5_linear" x1="83.3726" y1="-1.31216" x2="83.3726" y2="92.4082" gradientUnits="userSpaceOnUse">
      <stop stop-color="#162F4A"/>
      <stop offset="1" stop-color="#224B76"/>
    </linearGradient>
    <clipPath id="clip0">
      <rect width="107" height="95" fill="white"/>
    </clipPath>
  </defs>
</svg>
