<svg width="17" height="17" viewBox="0 0 17 17" fill="none" xmlns="http://www.w3.org/2000/svg">
<g opacity="0.85" clip-path="url(#clip0)">
<path d="M8.09575 0.34552H8.09175C3.68075 0.34552 0.09375 3.93352 0.09375 8.34552C0.09375 10.0955 0.65775 11.7175 1.61675 13.0345L0.61975 16.0065L3.69475 15.0235C4.95975 15.8615 6.46875 16.3455 8.09575 16.3455C12.5068 16.3455 16.0938 12.7565 16.0938 8.34552C16.0938 3.93452 12.5068 0.34552 8.09575 0.34552Z" fill="#4CAF50"/>
<path d="M12.7513 11.6425C12.5583 12.1875 11.7923 12.6395 11.1813 12.7715C10.7633 12.8605 10.2173 12.9315 8.37929 12.1695C6.02829 11.1955 4.51429 8.80652 4.39629 8.65152C4.28329 8.49652 3.44629 7.38652 3.44629 6.23852C3.44629 5.09052 4.02929 4.53152 4.26429 4.29152C4.45729 4.09452 4.77629 4.00452 5.08229 4.00452C5.18129 4.00452 5.27029 4.00952 5.35029 4.01352C5.58529 4.02352 5.70329 4.03752 5.85829 4.40852C6.05129 4.87352 6.52129 6.02152 6.57729 6.13952C6.63429 6.25752 6.69129 6.41752 6.61129 6.57252C6.53629 6.73252 6.47029 6.80352 6.35229 6.93952C6.23429 7.07552 6.12229 7.17952 6.00429 7.32552C5.89629 7.45252 5.77429 7.58852 5.91029 7.82352C6.04629 8.05352 6.51629 8.82052 7.20829 9.43652C8.10129 10.2315 8.82529 10.4855 9.08429 10.5935C9.27729 10.6735 9.50729 10.6545 9.64829 10.5045C9.82729 10.3115 10.0483 9.99152 10.2733 9.67652C10.4333 9.45052 10.6353 9.42252 10.8473 9.50252C11.0633 9.57752 12.2063 10.1425 12.4413 10.2595C12.6763 10.3775 12.8313 10.4335 12.8883 10.5325C12.9443 10.6315 12.9443 11.0965 12.7513 11.6425Z" fill="#FAFAFA"/>
</g>
<defs>
<clipPath id="clip0">
<rect width="16" height="16" fill="white" transform="translate(0.09375 0.34552)"/>
</clipPath>
</defs>
</svg>
