<svg width="19" height="21" viewBox="0 0 19 21" fill="none" xmlns="http://www.w3.org/2000/svg">
<g clip-path="url(#clip0)">
<path d="M13.2424 7.61881H6.26959V4.42097C6.26643 4.15605 6.06961 3.94415 5.82993 3.94764C5.71109 3.94935 5.59812 4.00487 5.51732 4.10121L0.135786 10.1771C-0.0239826 10.3238 -0.0459128 10.5859 0.0867758 10.7625C0.101562 10.7821 0.117954 10.8003 0.135786 10.8167L5.51732 16.8925C5.60044 16.9897 5.71463 17.0471 5.83558 17.0524H6.0092C6.17439 16.9638 6.27657 16.7756 6.26959 16.5727V13.6947H13.2424C13.5338 13.6401 13.7577 13.3796 13.7921 13.0551V7.93856C13.7921 7.68277 13.5028 7.61881 13.2424 7.61881Z" fill="#939191"/>
<path d="M15.0942 7.45887C14.8545 7.45887 14.6602 7.67366 14.6602 7.93857V13.0551C14.6602 13.32 14.8545 13.5348 15.0942 13.5348C15.3338 13.5348 15.5282 13.32 15.5282 13.0551V7.93857C15.5282 7.67366 15.3339 7.45887 15.0942 7.45887Z" fill="#939191"/>
<path d="M16.8295 7.45887C16.5898 7.45887 16.3955 7.67366 16.3955 7.93857V13.0551C16.3955 13.32 16.5898 13.5348 16.8295 13.5348C17.0692 13.5348 17.2635 13.32 17.2635 13.0551V7.93857C17.2635 7.67366 17.0692 7.45887 16.8295 7.45887Z" fill="#939191"/>
<path d="M18.5658 7.45887C18.3262 7.45887 18.1318 7.67366 18.1318 7.93857V13.0551C18.1318 13.32 18.3262 13.5348 18.5658 13.5348C18.8055 13.5348 18.9998 13.32 18.9998 13.0551V7.93857C18.9998 7.67366 18.8055 7.45887 18.5658 7.45887Z" fill="#939191"/>
</g>
<defs>
<clipPath id="clip0">
<rect width="19" height="21" fill="white"/>
</clipPath>
</defs>
</svg>
