<svg width="124" height="124" viewBox="0 0 124 124" fill="none" xmlns="http://www.w3.org/2000/svg">
<path d="M62 124C53.858 124 45.7958 122.396 38.2736 119.281C30.7514 116.165 23.9166 111.598 18.1594 105.841C12.4021 100.083 7.83526 93.2485 4.71947 85.7264C1.60368 78.2042 3.28484e-06 70.1419 5.42021e-06 62C7.55559e-06 53.858 1.60369 45.7958 4.71948 38.2736C7.83528 30.7514 12.4022 23.9166 18.1594 18.1594C23.9166 12.4021 30.7515 7.83524 38.2737 4.71945C45.7958 1.60367 53.8581 -8.88208e-06 62 -5.42021e-06L62 62L62 124Z" fill="url(#paint0_linear)"/>
<path fill-rule="evenodd" clip-rule="evenodd" d="M37.8579 44.3223L53.7678 60.2322C54.7441 61.2085 54.7441 62.7915 53.7678 63.7678L37.8579 79.6777C36.8816 80.654 35.2987 80.654 34.3224 79.6777C33.3461 78.7013 33.3461 77.1184 34.3224 76.1421L45.9645 64.5L24.4834 64.5C23.1027 64.5 21.9834 63.3807 21.9834 62V62C21.9834 60.6193 23.1027 59.5 24.4834 59.5L45.9645 59.5L34.3224 47.8579C33.3461 46.8815 33.3461 45.2986 34.3224 44.3223C35.2987 43.346 36.8816 43.346 37.8579 44.3223Z" fill="white"/>
<defs>
<linearGradient id="paint0_linear" x1="62" y1="124" x2="62" y2="-5.42021e-06" gradientUnits="userSpaceOnUse">
<stop offset="0.609926" stop-color="#F8C563"/>
<stop offset="0.871161" stop-color="#FFD363"/>
</linearGradient>
</defs>
</svg>
