<svg width="42" height="39" viewBox="0 0 42 39" style="width: 42px; height: 42px" fill="none" xmlns="http://www.w3.org/2000/svg">
<ellipse cx="21" cy="19.5" rx="21" ry="19.5" fill="white"/>
<g clip-path="url(#clip0)">
<path d="M25.2236 21.0912C27.8644 17.6233 26.9812 12.8212 23.2521 10.3659C19.5229 7.91061 14.3592 8.73139 11.719 12.1999C9.07872 15.6678 9.96132 20.4693 13.6911 22.9246C16.3528 24.677 19.8718 24.812 22.6792 23.2702L28.7792 28.9088C29.4378 29.5536 30.5337 29.5794 31.227 28.9669C31.9204 28.355 31.9481 27.3359 31.2901 26.6911C31.2693 26.6706 31.2491 26.6518 31.227 26.6325L25.2236 21.0912ZM18.4662 21.6169C15.5194 21.6174 13.1302 19.3974 13.1283 16.657C13.1277 13.9166 15.515 11.6948 18.4624 11.6936C21.4055 11.6924 23.7934 13.9089 23.799 16.6458C23.8041 19.3869 21.4181 21.6122 18.47 21.6169C18.4687 21.6169 18.4681 21.6169 18.4662 21.6169Z" fill="#F8C563"/>
</g>
<defs>
<clipPath id="clip0">
<rect width="22" height="20.459" fill="#F8C563" transform="translate(10 8.95082)"/>
</clipPath>
</defs>
</svg>
