<svg width="40" height="38" viewBox="0 0 40 38" fill="none" xmlns="http://www.w3.org/2000/svg">
<path fill-rule="evenodd" clip-rule="evenodd" d="M31.5669 14.7204L36.8778 5.60337C37.8693 3.90127 37.2841 1.7173 35.5744 0.738969C33.8897 -0.225084 31.7429 0.344006 30.757 2.01605L13.9555 30.5095C13.1363 31.8988 13.611 33.6897 15.0109 34.4907L15.6258 34.8425C17.294 35.7971 19.418 35.2697 20.4459 33.6456L21.6578 31.731C22.395 32.5653 23.2801 33.2953 24.301 33.8795C29.3063 36.7436 35.7064 35.0439 38.5962 30.0831C41.486 25.1223 39.7711 18.779 34.7658 15.9149C33.745 15.3307 32.6646 14.9359 31.5669 14.7204ZM22.1144 30.9395C21.9149 30.6988 21.7284 30.4496 21.5552 30.1928L19.6772 33.1767C18.9028 34.4073 17.2959 34.8084 16.0339 34.0863C14.7213 33.3352 14.2763 31.6558 15.0448 30.3533L31.5069 2.45075C32.2527 1.18677 33.8757 0.756718 35.1495 1.4856C36.4424 2.2254 36.8849 3.87689 36.1351 5.164L30.1715 15.4014C30.4839 15.4218 30.7964 15.4574 31.1077 15.5087C31.1506 15.5157 31.1935 15.5231 31.2364 15.5308C32.2981 15.7203 33.3454 16.0918 34.3334 16.6572C34.9074 16.9856 35.4341 17.3639 35.9114 17.7834C39.2523 20.7196 40.1668 25.6726 37.8472 29.6545C35.1963 34.2053 29.325 35.7645 24.7334 33.1371C23.7055 32.5489 22.8289 31.8007 22.117 30.9427L22.1144 30.9395ZM21.5014 28.5708L18.9082 32.7159C18.387 33.5489 17.301 33.8216 16.4481 33.3335C15.5591 32.8248 15.2608 31.6855 15.7864 30.8064L24.286 16.5902L32.2634 2.89564C32.7645 2.03557 33.8654 1.74059 34.7293 2.23494C35.6027 2.73472 35.9016 3.8504 35.3951 4.71992L28.7274 16.1662L30.1147 16.2567C30.3988 16.2753 30.683 16.3077 30.966 16.3543C31.9709 16.5196 32.9643 16.8636 33.901 17.3995C38.0789 19.7903 39.5104 25.0851 37.0983 29.2259C34.9876 32.8491 30.6336 34.3883 26.7792 33.1148C26.2285 32.9329 25.6881 32.6936 25.1659 32.3948C24.2292 31.8588 23.432 31.1781 22.7851 30.3983C22.6142 30.1923 22.4538 29.9794 22.304 29.7602C22.294 29.7456 22.284 29.731 22.2742 29.7163L21.5014 28.5708ZM22.0728 27.8756C21.7791 27.4403 21.1343 27.4521 20.8568 27.898L18.1474 32.251C17.8745 32.6894 17.3038 32.8334 16.8556 32.5769C16.3909 32.311 16.2335 31.7164 16.5058 31.2554L33.0075 3.32126C33.2724 2.87295 33.8482 2.72054 34.3001 2.97915C34.759 3.24173 34.9161 3.82791 34.65 4.28475L27.395 16.7391C27.3436 16.8273 27.4029 16.9388 27.5048 16.9454L30.0579 17.112C31.221 17.1879 32.3858 17.5223 33.4685 18.1419C37.2328 20.2959 38.5226 25.0665 36.3493 28.7973C34.1759 32.5282 29.3626 33.8064 25.5983 31.6524C24.5156 31.0329 23.641 30.2002 22.9931 29.2399L22.0728 27.8756ZM32.9496 19.0327C29.8472 17.2574 25.8801 18.3109 24.089 21.3858C22.2978 24.4607 23.3607 28.3925 26.4632 30.1678C29.5656 31.943 33.5327 30.8895 35.3238 27.8146C37.115 24.7398 36.0521 20.808 32.9496 19.0327ZM32.5172 19.775C29.8284 18.2365 26.3903 19.1495 24.838 21.8144C23.2856 24.4793 24.2068 27.8869 26.8956 29.4254C29.5844 30.964 33.0225 30.0509 34.5749 27.3861C36.1272 24.7212 35.206 21.3136 32.5172 19.775ZM7.48483 18.2261C7.61018 18.2978 7.73715 18.3641 7.86548 18.4252C10.4897 19.6741 13.6824 18.7256 15.162 16.1856C16.7144 13.5207 15.7932 10.1131 13.1044 8.57457C10.4156 7.036 6.97751 7.94906 5.42515 10.6139C3.94553 13.1539 4.71312 16.3686 7.11649 17.9966C7.23466 18.0767 7.35679 18.1529 7.48279 18.225L7.48483 18.2261ZM18.0312 17.432L18.0309 17.4324L18.0307 17.4328L7.73655 35.1044C7.23554 35.9644 6.13462 36.2594 5.27071 35.7651C4.3973 35.2653 4.09837 34.1496 4.60488 33.2801L11.2726 21.8338L9.88528 21.7433C9.60116 21.7247 9.31704 21.6923 9.03395 21.6457C8.02908 21.4804 7.03571 21.1364 6.09903 20.6005C2.44333 18.5086 0.890403 14.1932 2.17523 10.3731C2.35877 9.82732 2.60023 9.29169 2.90175 8.77409C5.01237 5.15087 9.3664 3.61174 13.2208 4.88515C13.7715 5.06707 14.3119 5.30638 14.8341 5.60522C15.7708 6.14121 16.568 6.8219 17.2149 7.60173C17.3858 7.80769 17.5462 8.02065 17.696 8.23977C17.706 8.25438 17.716 8.26901 17.7258 8.28367L18.4986 9.4292L21.0937 5.28123C21.6138 4.44984 22.6977 4.17768 23.5489 4.66474C24.4385 5.17381 24.735 6.31516 24.2057 7.19289L18.0332 17.4284L18.0328 17.4292L18.0318 17.4308L18.0312 17.432ZM17.2847 16.9991L17.2843 16.9998L17.2813 17.0048L17.281 17.0055L17.2776 17.0113L6.98898 34.6733C6.72655 35.1238 6.14988 35.2784 5.69735 35.0194C5.23985 34.7576 5.08327 34.1732 5.34858 33.7178L11.4503 23.2432C12.0326 22.2436 11.3604 20.9805 10.206 20.9052L9.94211 20.888C8.77904 20.8121 7.61418 20.4777 6.53146 19.8581C2.76718 17.7041 1.47744 12.9335 3.65074 9.20268C5.82405 5.47184 10.6374 4.19356 14.4017 6.34756C15.4844 6.96712 16.359 7.79977 17.0069 8.76011L17.8838 10.06C18.1979 10.5256 18.8875 10.5129 19.1842 10.0361L21.8551 5.74497C22.1266 5.30885 22.6944 5.16558 23.1403 5.42072C23.6058 5.68712 23.7607 6.28459 23.4833 6.74365L17.286 16.9968L17.2853 16.998L17.2851 16.9984L17.2847 16.9991ZM4.84406 36.5107C6.11936 37.2405 7.74454 36.805 8.48412 35.5354L18.7768 17.8663L18.777 17.8659L18.7791 17.8624L18.7792 17.8622L18.7797 17.8613L18.7799 17.8609L18.7804 17.8601L18.7814 17.8585L18.7819 17.8576L18.7821 17.8573L18.7822 17.857L24.9285 7.64443C25.7096 6.34657 25.2707 4.66021 23.9559 3.90788C22.6996 3.18901 21.1 3.58839 20.329 4.81338L18.4448 7.80724C18.2716 7.55043 18.0851 7.30116 17.8856 7.06052L17.883 7.05734C17.1711 6.19925 16.2945 5.45109 15.2666 4.86288C10.675 2.23548 4.80372 3.7947 2.15275 8.3455C1.49002 9.4832 1.09129 10.7002 0.93773 11.9267C0.870169 12.4664 0.850066 13.0079 0.875817 13.5453C0.996388 16.0616 2.12221 18.4884 4.08859 20.2166C4.56586 20.6361 5.09265 21.0144 5.66659 21.3428C6.65462 21.9082 7.7019 22.2797 8.76361 22.4692C8.80648 22.4769 8.84938 22.4843 8.8923 22.4913C9.20364 22.5426 9.51607 22.5782 9.82846 22.5986L3.86118 32.8424C3.11347 34.126 3.55475 35.7729 4.84406 36.5107ZM19.5288 18.2898L19.5289 18.2895L19.5301 18.2876L19.5305 18.2868L25.6516 8.09788C26.6844 6.37865 26.1024 4.14638 24.3617 3.15028C22.7005 2.19971 20.5854 2.72491 19.5618 4.34213L18.3422 6.26903C17.605 5.43467 16.7199 4.70471 15.699 4.12055C10.6937 1.25644 4.29355 2.95613 1.40376 7.91691C-1.48601 12.8777 0.228917 19.221 5.23416 22.0851C6.25503 22.6693 7.33545 23.0641 8.43309 23.2796L3.11748 32.4047C2.12857 34.1024 2.7122 36.2806 4.41742 37.2564C6.1041 38.2215 8.25353 37.6456 9.23169 35.9664L19.5271 18.2927L19.5288 18.2898ZM4.67616 10.1854C2.88496 13.2602 3.94794 17.192 7.05036 18.9673C10.1528 20.7426 14.1198 19.6891 15.911 16.6142C17.7022 13.5393 16.6393 9.60751 13.5368 7.83224C10.4344 6.05696 6.46735 7.11049 4.67616 10.1854Z" fill="url(#paint0_linear)"/>
<defs>
<linearGradient id="paint0_linear" x1="-1.5311" y1="3.36019" x2="51.7184" y2="21.8984" gradientUnits="userSpaceOnUse">
<stop offset="0.114519" stop-color="#FBD16D"/>
<stop offset="0.482373" stop-color="#D9952E"/>
<stop offset="0.807259" stop-color="#FF8A00"/>
</linearGradient>
</defs>
</svg>
