<svg width="586" height="713" viewBox="0 0 586 713" fill="none" xmlns="http://www.w3.org/2000/svg">
  <path class="logo-anim" stroke="url(#paint2_linear)" stroke-width="5" fill-rule="evenodd" clip-rule="evenodd"
        d="M40.1778 187.178C39.672 185.42 40.1046 183.532 41.2875 182.137C44.3128 178.568 50.2198 180.058 51.5351 184.548C57.2205 203.955 67.4623 222.124 81.9432 237.297C87.8714 243.509 94.5101 249.218 101.837 254.306C114.451 263.063 128.078 269.261 142.103 273.013C142.669 273.164 143.236 273.312 143.804 273.455C147.922 274.496 152.072 275.328 156.238 275.952L64.4025 408.377C53.0494 424.748 57.1109 447.222 73.4759 458.584C89.853 469.954 112.347 465.889 123.709 449.506L281.576 221.864L281.58 221.859L281.611 221.814L281.614 221.811L281.621 221.8L281.625 221.795L281.633 221.783L281.647 221.763L281.655 221.751L281.657 221.747L281.66 221.744C284.279 218.081 289.976 219.1 291.162 223.444L291.437 224.449C291.892 226.114 291.586 227.896 290.602 229.314L133.272 456.142C118.246 477.81 88.4953 483.187 66.8353 468.149C45.1913 453.122 39.8195 423.399 54.835 401.747L136.758 283.616C122.28 279.473 108.235 272.922 95.2019 263.874C67.5024 244.643 48.8311 217.251 40.1778 187.178ZM183.135 9.68693C180.135 13.3271 182.728 18.9255 187.425 19.3565C208.897 21.327 230.169 28.711 249.148 41.8873C262.271 50.9982 273.185 62.1061 281.765 74.5185L281.797 74.5645C284.201 78.0451 286.421 81.6282 288.455 85.2986L317.011 46.9818C328.751 31.2284 350.867 27.6198 367.006 38.8243C383.696 50.4119 387.684 73.4123 375.869 89.9424L297.533 199.538C296.517 200.959 296.195 202.761 296.655 204.446C297.945 209.17 304.143 210.276 306.987 206.29L385.144 96.7631C400.771 74.8646 395.479 44.4173 373.381 29.0751C352.04 14.2589 322.8 18.9916 307.223 39.7834L288.812 64.3576C279.866 52.2382 268.816 41.3672 255.784 32.3189C234.891 17.814 211.449 9.74832 187.808 7.69658C186.018 7.54123 184.278 8.30029 183.135 9.68693ZM59.0022 163.893C58.8027 162.422 59.2569 160.941 60.2169 159.809C63.4353 156.013 69.9472 158.263 70.6562 163.189C74.7012 191.294 89.9555 217.706 115.109 235.169C128.931 244.765 144.177 250.592 159.689 252.918L184.417 256.625C190.077 257.473 192.882 263.966 189.621 268.669L83.5375 421.639C79.509 427.448 80.9501 435.423 86.7571 439.454C92.5683 443.489 100.55 442.046 104.582 436.233L262.434 208.615L262.485 208.539L262.491 208.531L262.536 208.467L262.542 208.458L262.549 208.448L262.552 208.444L262.563 208.427L273.197 193.61C276.049 189.636 282.235 190.749 283.523 195.467C283.984 197.154 283.66 198.959 282.642 200.381L272.098 215.105L272.091 215.115L272.077 215.136L272.066 215.151L272.063 215.156L272.059 215.161L114.145 442.869C106.449 453.967 91.2107 456.721 80.1165 449.019C69.0305 441.322 66.2792 426.098 73.97 415.008L176.468 267.209L157.964 264.435C154.174 263.867 150.4 263.111 146.656 262.164C133.366 258.804 120.431 253.039 108.473 244.737C80.2709 225.157 63.2809 195.442 59.0022 163.893ZM164.241 32.6167C161.05 36.4893 164.553 42.5666 169.563 42.2816C192.333 40.9862 215.688 47.0076 235.877 61.024C249.699 70.6207 260.491 82.8702 268.098 96.5956L280.411 118.814C283.14 123.737 290.047 124.184 293.388 119.655L336.485 61.2225C340.624 55.611 348.475 54.3098 354.203 58.2863C360.113 62.3896 361.518 70.5379 357.323 76.3834L289.656 170.675C288.637 172.094 288.313 173.897 288.773 175.582C290.059 180.292 296.235 181.399 299.078 177.43L366.595 83.1474C374.6 71.9694 371.908 56.4029 360.614 48.5622C349.68 40.9708 334.693 43.4368 326.767 54.1315L287.35 107.319L278.277 90.9471L278.18 90.7734L278.074 90.5826C278.025 90.4948 277.975 90.4071 277.926 90.3194C276.164 87.1854 274.252 84.1231 272.193 81.1439C264.395 69.8635 254.471 59.7579 242.512 51.4557C235.845 46.8268 228.867 42.9836 221.687 39.9062C204.418 32.5041 185.984 29.5323 167.91 30.7149C166.476 30.8087 165.154 31.508 164.241 32.6167ZM538.501 75.5134L456.651 193.54C471.128 197.683 485.173 204.234 498.206 213.282C562.106 257.646 577.96 345.445 533.617 409.387C489.273 473.329 401.524 489.201 337.625 444.837C324.592 435.789 313.543 424.918 304.596 412.799L286.302 437.217C270.659 458.096 241.298 462.848 219.868 447.97L212.002 442.509C194.276 430.203 189.938 405.829 202.328 388.162L291.537 260.966C294.363 256.937 300.605 258.025 301.901 262.772C302.357 264.441 302.046 266.225 301.052 267.641L217.187 387.157C205.535 403.761 209.611 426.674 226.274 438.243C242.484 449.497 264.699 445.872 276.491 430.049L304.953 391.858C306.987 395.528 309.207 399.111 311.611 402.592L311.643 402.638C320.223 415.05 331.137 426.158 344.26 435.269C402.879 475.966 483.376 461.406 524.055 402.748C559.648 351.423 552.963 283.341 511.465 239.859C505.537 233.648 498.898 227.938 491.571 222.851C478.957 214.094 465.33 207.895 451.305 204.144C450.739 203.992 450.172 203.845 449.604 203.701C445.486 202.66 441.336 201.829 437.17 201.204L528.949 68.8609C540.333 52.4447 536.261 29.9085 519.85 18.5154C503.492 7.15854 481.032 11.1536 469.593 27.4547L317.418 244.319C314.589 248.349 308.345 247.26 307.048 242.51C306.592 240.841 306.904 239.056 307.897 237.64L460.001 20.7663C475.125 -0.797976 504.833 -6.08575 526.469 8.93543C548.17 24.0019 553.556 53.8042 538.501 75.5134ZM315.284 272.671C314.864 271.135 315.156 269.492 316.078 268.194L356.899 210.733L479.263 34.287C486.959 23.1889 502.197 20.435 513.292 28.1373C524.378 35.8339 527.129 51.0583 519.438 62.1483L416.941 209.947L435.444 212.721C439.234 213.289 443.008 214.045 446.752 214.992C460.042 218.352 472.977 224.117 484.935 232.419C538.273 269.45 551.506 342.737 514.492 396.11C482.105 442.811 421.979 458.792 371.721 437.25C364.541 434.173 357.563 430.329 350.896 425.701C338.938 417.398 329.013 407.293 321.215 396.012C319.156 393.033 317.244 389.971 315.482 386.837C315.43 386.744 315.378 386.651 315.325 386.557C315.261 386.442 315.196 386.325 315.132 386.209L306.058 369.837L266.669 422.988C258.728 433.703 243.712 436.174 232.756 428.568C221.471 420.733 218.753 405.192 226.709 393.992L300.318 290.378C302.95 286.673 308.706 287.694 309.903 292.078C310.326 293.626 310.037 295.28 309.115 296.593L235.941 400.75C231.813 406.625 233.254 414.738 239.152 418.833C244.91 422.83 252.801 421.522 256.962 415.882L300.02 357.502C303.361 352.972 310.269 353.419 312.997 358.342L325.31 380.561C332.917 394.286 343.709 406.536 357.531 416.132C405.588 449.496 471.581 437.56 504.93 389.471C538.28 341.382 526.356 275.352 478.299 241.988C464.477 232.391 449.231 226.564 433.719 224.239L399.696 219.138C398.32 218.932 397.638 217.354 398.431 216.211L509.849 55.5495C513.889 49.7228 512.444 41.7238 506.619 37.68C500.815 33.6506 492.847 35.0657 488.785 40.8471L324.758 274.326C322.172 278.007 316.469 277.01 315.284 272.671ZM348.854 275.443C376.34 235.81 430.729 225.972 470.337 253.47C509.944 280.968 519.771 335.388 492.285 375.022C464.8 414.655 410.41 424.494 370.803 396.996C331.195 369.498 321.369 315.077 348.854 275.443ZM358.416 282.082C382.237 247.733 429.375 239.207 463.701 263.038C498.028 286.87 506.544 334.034 482.723 368.383C458.902 402.732 411.765 411.259 377.438 387.427C343.112 363.596 334.595 316.431 358.416 282.082ZM134.614 217.256C132.961 216.286 131.333 215.246 129.733 214.136L129.707 214.118C128.098 213.001 126.546 211.833 125.052 210.618C94.6534 185.894 87.9804 141.512 110.685 108.773C134.506 74.4239 181.643 65.8976 215.97 89.7292C242.92 108.44 253.961 141.533 245.933 171.515C244.974 175.098 247.152 178.834 250.859 178.72C253.351 178.643 256.472 177.142 257.123 174.735C266.492 140.086 253.764 101.793 222.605 80.1608C182.998 52.6628 128.608 62.5009 101.123 102.134C73.6372 141.768 83.464 196.189 123.071 223.687C153.511 244.82 192.681 243.901 221.66 224.352C223.736 222.952 224.183 219.557 223.445 217.164C222.352 213.617 218.1 212.715 215.019 214.784C191.45 230.61 160.148 232.248 134.614 217.256Z"
        fill="url(#paint2_linear)"/>
  <defs>
    <linearGradient id="paint0_linear" x1="-23.622" y1="550.294" x2="351.548" y2="986.403"
                    gradientUnits="userSpaceOnUse">
      <stop offset="0.114519" stop-color="#FBD16D"/>
      <stop offset="0.482373" stop-color="#D9952E"/>
      <stop offset="0.807259" stop-color="#FF8A00"/>
    </linearGradient>
    <linearGradient id="paint1_linear" x1="-23.622" y1="550.294" x2="351.548" y2="986.403"
                    gradientUnits="userSpaceOnUse">
      <stop offset="0.114519" stop-color="#FBD16D"/>
      <stop offset="0.482373" stop-color="#D9952E"/>
      <stop offset="0.807259" stop-color="#FF8A00"/>
    </linearGradient>
    <linearGradient id="paint2_linear" x1="-10.1613" y1="-3.40554" x2="739.1" y2="279.353"
                    gradientUnits="userSpaceOnUse">
      <stop offset="0.114519" stop-color="#FBD16D"/>
      <stop offset="0.482373" stop-color="#D9952E"/>
      <stop offset="0.807259" stop-color="#FF8A00"/>
    </linearGradient>
  </defs>
</svg>
