<svg width="17" height="18" viewBox="0 0 17 18" fill="none"
     xmlns="http://www.w3.org/2000/svg">
    <g clip-path="url(#clip0)">
        <path d="M11.2695 9.06547L17.0007 12.649V5.33057L11.2695 9.06547Z"
              fill="white"/>
        <path d="M0 5.33057V12.649L5.73112 9.06547L0 5.33057Z" fill="white"/>
        <path d="M15.9398 3.19922H1.0648C0.534617 3.19922 0.113867 3.59015 0.0341797 4.09354L8.5023 9.61182L16.9704 4.09354C16.8907 3.59015 16.47 3.19922 15.9398 3.19922Z"
              fill="white"/>
        <path d="M10.2978 9.70015L8.79432 10.6796C8.70507 10.7374 8.60414 10.7658 8.50214 10.7658C8.40014 10.7658 8.2992 10.7374 8.20995 10.6796L6.70651 9.6991L0.0361328 13.8722C0.117945 14.3714 0.53657 14.7592 1.06463 14.7592H15.9396C16.4677 14.7592 16.8863 14.3714 16.9681 13.8722L10.2978 9.70015Z"
              fill="white"/>
    </g>
    <defs>
        <clipPath id="clip0">
            <rect width="17" height="16.8144" fill="white"
                  transform="translate(0 0.572021)"/>
        </clipPath>
    </defs>
</svg>
