<svg width="17" height="18" viewBox="0 0 17 18" fill="none"
     xmlns="http://www.w3.org/2000/svg">
    <g clip-path="url(#clip0)">
        <path d="M7.03948 10.167C5.41686 8.56207 5.05048 6.95716 4.96783 6.31415C4.94473 6.13636 5.00659 5.95806 5.13519 5.83175L6.44829 4.53356C6.64145 4.34263 6.67573 4.04507 6.53095 3.81605L4.44024 0.60508C4.28007 0.351487 3.95118 0.259962 3.68081 0.39374L0.324484 1.95719C0.105846 2.06367 -0.0227537 2.29344 0.00207025 2.53323C0.177932 4.18568 0.906294 8.24781 4.94233 12.2401C8.97836 16.2323 13.0847 16.9525 14.7563 17.1264C14.9988 17.151 15.231 17.0238 15.3387 16.8075L16.9194 13.4878C17.0542 13.221 16.9622 12.8966 16.7069 12.7378L13.4605 10.6705C13.2291 10.5272 12.9283 10.5608 12.7351 10.7517L11.4226 12.0505C11.2949 12.1777 11.1146 12.2389 10.9348 12.216C10.2847 12.1343 8.6621 11.7719 7.03948 10.167Z"
              fill="white"/>
        <path d="M13.483 9.30209C13.1593 9.30209 12.8968 9.0425 12.8968 8.72228C12.8941 6.32177 10.9273 4.37644 8.50027 4.37373C8.17652 4.37373 7.91406 4.11414 7.91406 3.79392C7.91406 3.4737 8.17652 3.21411 8.50027 3.21411C11.5745 3.21747 14.0658 5.68159 14.0692 8.72228C14.0692 9.0425 13.8068 9.30209 13.483 9.30209Z"
              fill="white"/>
        <path d="M16.4141 9.30208C16.0903 9.30208 15.8279 9.04249 15.8279 8.72227C15.8233 4.72139 12.5453 1.47915 8.50027 1.47468C8.17652 1.47468 7.91406 1.21509 7.91406 0.894871C7.91406 0.574652 8.17652 0.315063 8.50027 0.315063C13.1925 0.320176 16.9951 4.08122 17.0003 8.72227C17.0003 8.87604 16.9385 9.02352 16.8286 9.13225C16.7186 9.24099 16.5695 9.30208 16.4141 9.30208Z"
              fill="white"/>
    </g>
    <defs>
        <clipPath id="clip0">
            <rect width="17" height="16.8144" fill="white"
                  transform="translate(0 0.315063)"/>
        </clipPath>
    </defs>
</svg>
