<svg width="25" height="26" viewBox="0 0 25 26" fill="none" xmlns="http://www.w3.org/2000/svg">
<path d="M3.20884 0.411255H21.7912C23.5559 0.411255 24.9997 1.71779 24.9997 3.61984V22.2027C24.9997 24.1047 23.5559 25.4113 21.7912 25.4113H3.20884C1.44361 25.4113 0 24.1047 0 22.2027V3.61984C0 1.71779 1.44361 0.411255 3.20884 0.411255ZM18.2114 3.18886C17.5923 3.18886 17.0864 3.69505 17.0864 4.31443V7.00836C17.0864 7.62749 17.5923 8.13393 18.2114 8.13393H21.037C21.6561 8.13393 22.1626 7.62749 22.1626 7.00836V4.31443C22.1626 3.69505 21.6561 3.18886 21.037 3.18886H18.2114ZM22.1744 10.9837H19.9741C20.1823 11.6634 20.2949 12.3834 20.2949 13.1283C20.2949 17.2866 16.8153 20.6574 12.5237 20.6574C8.23246 20.6574 4.75332 17.2866 4.75332 13.1283C4.75332 12.3829 4.86575 11.6631 5.07418 10.9837H2.77812V21.544C2.77812 22.0905 3.22527 22.5379 3.77201 22.5379H21.181C21.7278 22.5379 22.1749 22.0908 22.1749 21.544V10.9837H22.1744ZM12.5235 7.99198C9.75076 7.99198 7.5027 10.17 7.5027 12.857C7.5027 15.544 9.75076 17.7219 12.5235 17.7219C15.2965 17.7219 17.5448 15.544 17.5448 12.857C17.5448 10.17 15.2967 7.99198 12.5235 7.99198Z" fill="#F8C563"/>
</svg>
