<svg width="25" height="26" viewBox="0 0 25 26" fill="none" xmlns="http://www.w3.org/2000/svg">
<path d="M24.5139 20.2902L21.7424 18.4424L19.2786 16.8002C18.8031 16.4838 18.1641 16.5876 17.8131 17.0381L16.2885 18.998C15.961 19.4233 15.3719 19.5455 14.9023 19.2855C13.8678 18.7101 12.6446 18.1683 9.94547 15.4657C7.24638 12.7632 6.70112 11.5434 6.12569 10.5089C5.86568 10.0393 5.9879 9.45018 6.41318 9.12275L8.37307 7.5982C8.82361 7.24723 8.92736 6.60822 8.61101 6.13269L7.01923 3.74478L5.12096 0.897353C4.79787 0.41269 4.1511 0.267184 3.65159 0.566741L1.46236 1.8801C0.870718 2.22868 0.435811 2.79157 0.247727 3.45206C-0.350948 5.6348 -0.471649 10.4498 7.24506 18.1665C14.9618 25.8832 19.7764 25.7622 21.9591 25.1634C22.6196 24.9754 23.1825 24.5405 23.5311 23.9488L24.8444 21.7596C25.144 21.2601 24.9985 20.6133 24.5139 20.2902Z" fill="#2D2D2D"/>
<path d="M14.224 4.29046C18.2689 4.29495 21.547 7.57294 21.5515 11.618C21.5515 11.856 21.7444 12.049 21.9825 12.049C22.2206 12.049 22.4136 11.856 22.4136 11.618C22.4086 7.09707 18.7449 3.43339 14.224 3.42841C13.986 3.42841 13.793 3.62137 13.793 3.85946C13.7929 4.09744 13.9859 4.29046 14.224 4.29046Z" fill="#2D2D2D"/>
<path d="M14.224 6.87663C16.8413 6.8797 18.9622 9.00067 18.9653 11.6179C18.9653 11.856 19.1583 12.049 19.3964 12.049C19.6344 12.049 19.8274 11.856 19.8274 11.6179C19.8239 8.52475 17.3172 6.01809 14.224 6.01453C13.986 6.01453 13.793 6.20749 13.793 6.44558C13.793 6.68366 13.9859 6.87663 14.224 6.87663Z" fill="#2D2D2D"/>
<path d="M14.224 9.46279C15.4137 9.4642 16.3777 10.4283 16.3791 11.6179C16.3791 11.856 16.5721 12.049 16.8102 12.049C17.0482 12.049 17.2412 11.856 17.2412 11.6179C17.2393 9.95238 15.8896 8.60264 14.224 8.60074C13.986 8.60074 13.793 8.7937 13.793 9.03179C13.7929 9.26982 13.9859 9.46279 14.224 9.46279Z" fill="#2D2D2D"/>
</svg>
