<svg width="25" height="26" viewBox="0 0 25 26" fill="none" xmlns="http://www.w3.org/2000/svg">
<path d="M12.5031 0.411255H12.4969C5.60469 0.411255 0 6.0175 0 12.9113C0 15.6456 0.88125 18.18 2.37969 20.2378L0.821875 24.8816L5.62656 23.3456C7.60313 24.655 9.96094 25.4113 12.5031 25.4113C19.3953 25.4113 25 19.8034 25 12.9113C25 6.01907 19.3953 0.411255 12.5031 0.411255ZM19.7766 18.0628C19.475 18.9144 18.2781 19.6206 17.3234 19.8269C16.6703 19.9659 15.8172 20.0769 12.9453 18.8863C9.27187 17.3644 6.90625 13.6316 6.72188 13.3894C6.54531 13.1472 5.2375 11.4128 5.2375 9.61907C5.2375 7.82532 6.14844 6.95188 6.51563 6.57688C6.81719 6.26907 7.31562 6.12844 7.79375 6.12844C7.94844 6.12844 8.0875 6.13625 8.2125 6.1425C8.57969 6.15813 8.76406 6.18001 9.00625 6.75969C9.30781 7.48626 10.0422 9.28001 10.1297 9.46438C10.2187 9.64876 10.3078 9.89876 10.1828 10.1409C10.0656 10.3909 9.9625 10.5019 9.77812 10.7144C9.59375 10.9269 9.41875 11.0894 9.23437 11.3175C9.06562 11.5159 8.875 11.7284 9.0875 12.0956C9.3 12.455 10.0344 13.6534 11.1156 14.6159C12.5109 15.8581 13.6422 16.255 14.0469 16.4238C14.3484 16.5488 14.7078 16.5191 14.9281 16.2847C15.2078 15.9831 15.5531 15.4831 15.9047 14.9909C16.1547 14.6378 16.4703 14.5941 16.8016 14.7191C17.1391 14.8363 18.925 15.7191 19.2922 15.9019C19.6594 16.0863 19.9016 16.1738 19.9906 16.3284C20.0781 16.4831 20.0781 17.2097 19.7766 18.0628Z" fill="#2D2D2D"/>
</svg>
